:SAMPLES-PER-SECOND 30
:FULLY-SPECIFIED
:DEGREES
419
root  0.372204 33.8154 -3.5671 149.796 -80.0431 -133.236
RightUpLeg  -56.06 -34.5521 4.88866
RightLeg  59.2851 15.6257 25.8234
RightFoot  -5.24731 -1.05875 19.0512
RightToes  -6.40286e-010 0 -3.6325e-017
Spine  16.7679 1.51111 -9.24757
Spine1  -18.0536 -0.410776 37.5696
HEad  -21.8498 13.3033 -18.9877
LeftShoulder1  0.240927 10.3345 13.6639
LeftArm  -23.8112 16.3911 -2.14499
LeftForeArm  9.37251 -12.7229 -6.06067
LeftHand  2.27001 10.2967 49.3583
RightShoulder  -0.0468089 -3.72673 12.4288
RightArm  0.705768 -55.5113 38.7325
RightForeArm  -22.3435 31.6788 8.09182
RightHand  -0.888232 -1.4596 -25.9334
LeftUpLeg  -7.24812 30.1434 43.635
LeftLeg  -3.42874 18.8303 2.29611
LeftFoot  31.4402 13.7288 -34.694
LeftToes  -2.09187e-010 -4.93792e-011 -8.21189e-011
420
root  0.338604 33.6457 -4.17629 157.687 -79.3253 -141.008
RightUpLeg  -55.7656 -31.8756 4.67724
RightLeg  59.5957 14.3001 24.168
RightFoot  -10.0571 -0.269364 17.7774
RightToes  -6.40286e-010 0 -3.6325e-017
Spine  16.3674 -0.28077 -11.1684
Spine1  -17.0022 -2.89666 41.9093
HEad  -21.4565 19.1524 -22.1602
LeftShoulder1  0.109143 8.89897 11.9645
LeftArm  -18.8587 15.4534 -2.35586
LeftForeArm  15.9791 -13.6391 -6.57421
LeftHand  2.61813 10.7912 51.4265
RightShoulder  -0.28471 -5.09001 10.3913
RightArm  -3.03666 -54.3009 42.9915
RightForeArm  -20.4524 35.0596 8.96729
RightHand  -0.840658 -1.53221 -25.0148
LeftUpLeg  -5.34166 29.8464 43.9357
LeftLeg  -4.40179 20.4621 1.51473
LeftFoot  31.1393 13.6858 -34.8452
LeftToes  -2.09187e-010 -4.93792e-011 -8.21189e-011
421
root  0.287782 33.4483 -4.67539 163.996 -78.4667 -147.274
RightUpLeg  -55.297 -28.4691 4.03516
RightLeg  59.7452 12.3824 21.3327
RightFoot  -14.8162 0.407744 16.6632
RightToes  -6.40286e-010 0 -3.6325e-017
Spine  15.9469 -1.89791 -12.9983
Spine1  -15.9617 -5.33487 46.0088
HEad  -21.4453 24.4304 -25.3136
LeftShoulder1  0.00751008 7.4233 9.84902
LeftArm  -11.9701 15.3171 -3.34636
LeftForeArm  22.1363 -15.4473 -6.51992
LeftHand  2.75163 10.8876 52.847
RightShoulder  -0.481002 -6.41683 8.89862
RightArm  -5.71596 -52.0853 45.5579
RightForeArm  -19.1716 38.761 10.0702
RightHand  -0.725836 -1.93888 -24.139
LeftUpLeg  -4.08032 29.3091 44.1163
LeftLeg  -4.49751 22.1914 1.67168
LeftFoot  31.6917 13.8116 -34.6907
LeftToes  -2.09187e-010 -4.93792e-011 -8.21189e-011
422
root  0.217788 33.2312 -5.05755 167.717 -77.4077 -151.406
RightUpLeg  -54.884 -24.9885 3.23998
RightLeg  60.5335 10.2379 18.4188
RightFoot  -17.7573 0.755801 15.5309
RightToes  -6.40286e-010 0 -3.6325e-017
Spine  15.8631 -3.37215 -14.1234
Spine1  -15.1306 -7.5163 49.2676
HEad  -21.4606 29.4522 -28.6051
LeftShoulder1  -0.0461084 5.76713 7.31036
LeftArm  -3.4141 16.1103 -5.04033
LeftForeArm  26.4178 -17.732 -5.83277
LeftHand  2.82454 10.8987 53.9304
RightShoulder  -0.613535 -7.46019 7.81826
RightArm  -8.70823 -49.181 47.1435
RightForeArm  -18.1771 43.0728 11.5688
RightHand  -0.638766 -2.26566 -23.4523
LeftUpLeg  -2.80212 28.8755 44.6507
LeftLeg  -4.04507 23.3946 2.33581
LeftFoot  32.4541 13.6332 -33.6582
LeftToes  -2.09187e-010 -4.93792e-011 -8.21189e-011
423
root  0.111061 33.0404 -5.35096 169.054 -76.3087 -153.792
RightUpLeg  -54.0112 -21.8095 2.22
RightLeg  61.737 8.51074 16.2036
RightFoot  -19.1933 0.898063 14.9039
RightToes  -6.40286e-010 0 -3.6325e-017
Spine  16.0651 -4.66181 -14.4957
Spine1  -14.2707 -9.36565 51.2593
HEad  -21.4874 34.2594 -31.9726
LeftShoulder1  -0.0391428 4.37457 4.63896
LeftArm  4.65433 17.2457 -7.97001
LeftForeArm  28.6608 -19.7604 -4.91919
LeftHand  2.9842 11.0584 55.1558
RightShoulder  -0.674259 -8.07791 6.96936
RightArm  -12.2867 -45.6471 48.6568
RightForeArm  -16.7283 48.0158 13.5979
RightHand  -0.621846 -2.30554 -23.1215
LeftUpLeg  -1.34009 28.5554 45.4214
LeftLeg  -2.88015 23.7099 3.32325
LeftFoot  31.9462 12.8827 -32.2898
LeftToes  -2.09187e-010 -4.93792e-011 -8.21189e-011
424
root  -0.0495205 32.9132 -5.58971 169.516 -75.5555 -155.755
RightUpLeg  -52.3487 -19.0036 0.831353
RightLeg  62.7013 7.26346 14.4491
RightFoot  -20.4879 1.06595 14.9884
RightToes  -6.40286e-010 0 -3.6325e-017
Spine  16.1274 -5.75129 -14.5215
Spine1  -13.0998 -10.9937 51.9301
HEad  -21.371 38.3006 -34.7734
LeftShoulder1  0.00801146 3.37464 2.20904
LeftArm  10.4436 18.29 -12.542
LeftForeArm  30.1497 -21.0746 -4.2669
LeftHand  3.0158 11.0077 56.0588
RightShoulder  -0.685168 -8.21561 6.75228
RightArm  -15.4856 -41.1871 49.7391
RightForeArm  -14.4234 52.8268 15.9862
RightHand  -0.644521 -2.22856 -23.3816
LeftUpLeg  -0.135053 27.8613 45.7459
LeftLeg  -1.15916 23.8224 4.73141
LeftFoot  30.9469 11.7064 -30.2167
LeftToes  -2.09187e-010 -4.93792e-011 -8.21189e-011
425
root  -0.247786 32.8651 -5.75682 170.322 -75.4801 -158.423
RightUpLeg  -50.0163 -16.729 -1.01634
RightLeg  63.278 6.18467 12.6173
RightFoot  -21.8755 1.25926 15.2002
RightToes  -6.40286e-010 0 -3.6325e-017
Spine  16.0109 -6.7129 -14.2943
Spine1  -11.6947 -12.4606 51.2344
HEad  -20.7463 41.0436 -36.2784
LeftShoulder1  0.0885743 2.47046 -0.099935
LeftArm  14.154 19.2502 -18.1485
LeftForeArm  31.3973 -21.7288 -3.95545
LeftHand  2.91928 10.7962 56.3201
RightShoulder  -0.65607 -7.81071 7.5381
RightArm  -17.782 -35.7573 49.778
RightForeArm  -11.5226 56.6782 18.3157
RightHand  -0.686295 -2.13759 -24.1995
LeftUpLeg  0.644239 26.4892 45.3541
LeftLeg  0.658856 23.9696 6.26201
LeftFoot  31.0886 10.5139 -27.2008
LeftToes  -2.09187e-010 -4.93792e-011 -8.21189e-011
426
root  -0.451472 32.8919 -5.82593 171.98 -76.1204 -162.304
RightUpLeg  -47.2836 -15.1794 -3.32805
RightLeg  63.6822 5.18158 10.7297
RightFoot  -22.6764 1.3506 15.0889
RightToes  -6.40286e-010 0 -3.6325e-017
Spine  16.0496 -7.55027 -13.5811
Spine1  -10.3988 -13.554 49.0091
HEad  -19.5327 42.4163 -36.4263
LeftShoulder1  0.198294 1.62325 -2.39177
LeftArm  16.5279 20.1055 -24.0378
LeftForeArm  32.4491 -21.8511 -3.90105
LeftHand  2.9194 10.7753 56.5033
RightShoulder  -0.557165 -6.8814 8.92447
RightArm  -19.6803 -30.005 49.2652
RightForeArm  -8.28919 59.6003 20.4192
RightHand  -0.742439 -2.01619 -25.2346
LeftUpLeg  1.18883 24.5211 44.7179
LeftLeg  2.62491 23.5527 7.199
LeftFoot  31.9142 9.86166 -25.0742
LeftToes  -2.09187e-010 -4.93792e-011 -8.21189e-011
427
root  -0.639022 32.9796 -5.79643 175.237 -77.3119 -167.871
RightUpLeg  -44.4316 -14.247 -6.08579
RightLeg  63.9008 4.34628 9.03158
RightFoot  -22.7758 1.34507 14.9099
RightToes  -6.40286e-010 0 -3.6325e-017
Spine  16.2121 -8.1196 -12.1991
Spine1  -9.49045 -13.9201 45.2411
HEad  -17.9415 42.5059 -35.6057
LeftShoulder1  0.301079 1.06766 -4.4572
LeftArm  17.4596 20.5267 -30.0506
LeftForeArm  33.6137 -21.376 -4.15535
LeftHand  2.92558 10.7818 56.5454
RightShoulder  -0.377998 -5.64431 10.1244
RightArm  -21.9483 -24.8704 49.071
RightForeArm  -4.07824 62.382 22.7727
RightHand  -0.801305 -1.89069 -26.2482
LeftUpLeg  1.37479 22.3355 44.0714
LeftLeg  5.08004 22.573 7.28955
LeftFoot  32.3381 10.1194 -25.4404
LeftToes  -2.09187e-010 -4.93792e-011 -8.21189e-011
428
root  -0.793578 33.1101 -5.65928 -178.539 -78.9068 -176.177
RightUpLeg  -41.6349 -13.5624 -9.29642
RightLeg  63.7603 3.56763 7.28246
RightFoot  -22.6437 1.33975 15.0219
RightToes  -6.40286e-010 0 -3.6325e-017
Spine  16.1339 -8.2665 -10.0544
Spine1  -8.96105 -13.3934 40.0797
HEad  -16.0651 41.1695 -33.9426
LeftShoulder1  0.404878 0.65201 -6.49094
LeftArm  16.7181 20.2474 -35.6956
LeftForeArm  34.5053 -20.4084 -4.77817
LeftHand  2.77805 10.6001 55.7176
RightShoulder  -0.162249 -4.37438 10.9377
RightArm  -24.9279 -20.802 48.9873
RightForeArm  2.27965 65.6985 26.2311
RightHand  -0.862025 -1.75061 -27.1364
LeftUpLeg  0.666021 19.3147 43.0204
LeftLeg  8.34568 22.6711 7.1217
LeftFoot  33.267 10.9604 -26.8569
LeftToes  -2.09187e-010 -4.93792e-011 -8.21189e-011
